<svg xmlns="http://www.w3.org/2000/svg" width="117.28" height="35" viewBox="0 0 117.28 35"><rect class="svg__rect" x="0" y="0" width="64.89" height="35" fill="#31C4F3"/><rect class="svg__rect" x="62.89" y="0" width="54.39" height="35" fill="#389AD5"/><path class="svg__text" d="M14.08 19.16L14.08 19.16L14.08 13.47L15.56 13.47L15.56 19.18Q15.56 20.03 15.99 20.48Q16.43 20.93 17.27 20.93L17.27 20.93Q18.98 20.93 18.98 19.13L18.98 19.13L18.98 13.47L20.46 13.47L20.46 19.17Q20.46 20.53 19.59 21.32Q18.72 22.12 17.27 22.12L17.27 22.12Q15.81 22.12 14.94 21.33Q14.08 20.55 14.08 19.16ZM24.59 19.42L24.59 19.42L26.08 19.42Q26.08 20.15 26.56 20.55Q27.04 20.95 27.93 20.95L27.93 20.95Q28.71 20.95 29.10 20.63Q29.49 20.32 29.49 19.80L29.49 19.80Q29.49 19.24 29.09 18.94Q28.70 18.63 27.66 18.32Q26.63 18.01 26.02 17.63L26.02 17.63Q24.86 16.90 24.86 15.72L24.86 15.72Q24.86 14.69 25.70 14.02Q26.54 13.35 27.88 13.35L27.88 13.35Q28.77 13.35 29.47 13.68Q30.17 14.01 30.56 14.61Q30.96 15.22 30.96 15.96L30.96 15.96L29.49 15.96Q29.49 15.29 29.07 14.91Q28.65 14.54 27.87 14.54L27.87 14.54Q27.14 14.54 26.74 14.85Q26.34 15.16 26.34 15.71L26.34 15.71Q26.34 16.18 26.77 16.50Q27.21 16.81 28.20 17.10Q29.20 17.40 29.80 17.78Q30.41 18.16 30.69 18.65Q30.97 19.13 30.97 19.79L30.97 19.79Q30.97 20.86 30.15 21.49Q29.33 22.12 27.93 22.12L27.93 22.12Q27.01 22.12 26.23 21.77Q25.46 21.43 25.02 20.83Q24.59 20.22 24.59 19.42ZM40.84 22L35.26 22L35.26 13.47L40.80 13.47L40.80 14.66L36.74 14.66L36.74 17.02L40.24 17.02L40.24 18.19L36.74 18.19L36.74 20.82L40.84 20.82L40.84 22ZM44.60 19.42L44.60 19.42L46.08 19.42Q46.08 20.15 46.56 20.55Q47.04 20.95 47.94 20.95L47.94 20.95Q48.71 20.95 49.10 20.63Q49.49 20.32 49.49 19.80L49.49 19.80Q49.49 19.24 49.10 18.94Q48.70 18.63 47.67 18.32Q46.64 18.01 46.03 17.63L46.03 17.63Q44.86 16.90 44.86 15.72L44.86 15.72Q44.86 14.69 45.70 14.02Q46.54 13.35 47.89 13.35L47.89 13.35Q48.78 13.35 49.47 13.68Q50.17 14.01 50.57 14.61Q50.97 15.22 50.97 15.96L50.97 15.96L49.49 15.96Q49.49 15.29 49.07 14.91Q48.65 14.54 47.87 14.54L47.87 14.54Q47.15 14.54 46.75 14.85Q46.34 15.16 46.34 15.71L46.34 15.71Q46.34 16.18 46.78 16.50Q47.21 16.81 48.21 17.10Q49.20 17.40 49.81 17.78Q50.41 18.16 50.69 18.65Q50.97 19.13 50.97 19.79L50.97 19.79Q50.97 20.86 50.16 21.49Q49.34 22.12 47.94 22.12L47.94 22.12Q47.01 22.12 46.24 21.77Q45.46 21.43 45.03 20.83Q44.60 20.22 44.60 19.42Z" fill="#FFFFFF"/><path class="svg__text" d="M83.82 22L77.08 22L77.08 13.60L83.67 13.60L83.67 15.44L79.43 15.44L79.43 16.85L83.17 16.85L83.17 18.63L79.43 18.63L79.43 20.17L83.82 20.17L83.82 22ZM87.55 20.93L87.55 20.93L88.84 19.40Q89.51 20.27 90.28 20.27L90.28 20.27Q90.29 20.27 90.30 20.27L90.30 20.27Q90.81 20.27 91.08 19.96Q91.35 19.65 91.35 19.05L91.35 19.05L91.35 15.44L88.45 15.44L88.45 13.60L93.71 13.60L93.71 18.91Q93.71 20.54 92.88 21.36Q92.06 22.17 90.47 22.17L90.47 22.17Q89.54 22.17 88.78 21.85Q88.03 21.53 87.55 20.93ZM98.21 21.24L98.21 21.24L98.99 19.49Q99.55 19.86 100.29 20.09Q101.04 20.32 101.76 20.32L101.76 20.32Q103.12 20.32 103.13 19.64L103.13 19.64Q103.13 19.28 102.74 19.11Q102.35 18.93 101.48 18.74L101.48 18.74Q100.53 18.53 99.90 18.30Q99.26 18.06 98.81 17.55Q98.35 17.03 98.35 16.16L98.35 16.16Q98.35 15.39 98.77 14.77Q99.19 14.15 100.03 13.79Q100.86 13.43 102.07 13.43L102.07 13.43Q102.89 13.43 103.70 13.62Q104.51 13.80 105.12 14.17L105.12 14.17L104.39 15.93Q103.19 15.28 102.06 15.28L102.06 15.28Q101.35 15.28 101.03 15.49Q100.70 15.70 100.70 16.04L100.70 16.04Q100.70 16.37 101.09 16.54Q101.47 16.71 102.32 16.89L102.32 16.89Q103.28 17.10 103.91 17.33Q104.54 17.56 105.00 18.07Q105.47 18.58 105.47 19.46L105.47 19.46Q105.47 20.21 105.05 20.83Q104.63 21.44 103.79 21.80Q102.95 22.17 101.75 22.17L101.75 22.17Q100.73 22.17 99.77 21.92Q98.80 21.67 98.21 21.24Z" fill="#FFFFFF" x="75.89"/></svg>